<svg xmlns:xlink="http://www.w3.org/1999/xlink" version="1.1" id="Layer_2" xmlns="http://www.w3.org/2000/svg" x="0"
     y="0" viewBox="0 0 80.3 80.3" style="enable-background:new 0 0 80.3 80.3" xml:space="preserve"><style>.st5{fill:#F7C83A}.st7{fill:#f1cc4b}.st23{fill:#2384ab}.st24{fill:#babfc5}.st26{fill:#6eb9e0}.st27{fill:#f8a06d}</style>
    <circle class="st5" cx="40.2" cy="40.2" r="40.2"/>
    <defs><circle id="SVGID_3_" cx="40.2" cy="40.2" r="35.8"/></defs>
    <clipPath id="SVGID_2_"><use xlink:href="#SVGID_3_" style="overflow:visible"/></clipPath>
    <g style="clip-path:url(#SVGID_2_)"><path d="M18.8 97.2c-.7 0-1.3-.6-1.3-1.3V14c0-.7.6-1.2 1.3-1.2h43.1c.7 0 1.2.6 1.2 1.2v81.9c0 .7-.6 1.3-1.2 1.3H18.8z" style="fill:#0c2c48"/>
        <path style="fill:#fff" d="M20.1 20.3h40.6v69.4H20.1z"/>
        <path class="st24" d="M36.2 16h8.2v2h-8.2z"/>
        <g><path class="st23" d="M33.1 31.6c0 .5-.4 1-1 1h-9.3c-.5 0-1-.4-1-1V23c0-.5.4-1 1-1h9.3c.5 0 1 .4 1 1v8.6z"/>
            <path class="st26" d="M45.9 31.6c0 .5-.4 1-1 1h-9.3c-.5 0-1-.4-1-1V23c0-.5.4-1 1-1H45c.5 0 1 .4 1 1v8.6z"/>
            <path class="st7" d="M58.8 31.6c0 .5-.4 1-1 1h-9.3c-.5 0-1-.4-1-1V23c0-.5.4-1 1-1h9.3c.5 0 1 .4 1 1v8.6z"/>
            <path class="st27"
                  d="M33.1 44.1c0 .5-.4 1-1 1h-9.3c-.5 0-1-.4-1-1v-8.6c0-.5.4-1 1-1h9.3c.5 0 1 .4 1 1v8.6z"/>
            <path class="st5" d="M45.9 44.1c0 .5-.4 1-1 1h-9.3c-.5 0-1-.4-1-1v-8.6c0-.5.4-1 1-1H45c.5 0 1 .4 1 1v8.6z"/>
            <path d="M58.8 44.1c0 .5-.4 1-1 1h-9.3c-.5 0-1-.4-1-1v-8.6c0-.5.4-1 1-1h9.3c.5 0 1 .4 1 1v8.6z"
                  style="fill:#55ab99"/>
            <g><path d="M33.1 56.5c0 .5-.4 1-1 1h-9.3c-.5 0-1-.4-1-1v-8.6c0-.5.4-1 1-1h9.3c.5 0 1 .4 1 1v8.6z" style="fill:#50646f"/>
                <path class="st24"
                      d="M45.9 56.5c0 .5-.4 1-1 1h-9.3c-.5 0-1-.4-1-1v-8.6c0-.5.4-1 1-1H45c.5 0 1 .4 1 1v8.6z"/>
                <path class="st27"
                      d="M58.8 56.5c0 .5-.4 1-1 1h-9.3c-.5 0-1-.4-1-1v-8.6c0-.5.4-1 1-1h9.3c.5 0 1 .4 1 1v8.6z"/></g>
            <g><path class="st7" d="M33.1 69c0 .5-.4 1-1 1h-9.3c-.5 0-1-.4-1-1v-8.6c0-.5.4-1 1-1h9.3c.5 0 1 .4 1 1V69z"/>
                <path class="st23"
                      d="M45.9 69c0 .5-.4 1-1 1h-9.3c-.5 0-1-.4-1-1v-8.6c0-.5.4-1 1-1H45c.5 0 1 .4 1 1V69z"/>
                <path class="st26"
                      d="M58.8 69c0 .5-.4 1-1 1h-9.3c-.5 0-1-.4-1-1v-8.6c0-.5.4-1 1-1h9.3c.5 0 1 .4 1 1V69z"/></g>
            <g><path class="st27" d="M33.3 81.5c0 .5-.4 1-1 1H23c-.5 0-1-.4-1-1v-8.6c0-.5.4-1 1-1h9.3c.5 0 1 .4 1 1v8.6z"/>
                <path class="st23"
                      d="M46.2 81.5c0 .5-.4 1-1 1H36c-.5 0-1-.4-1-1v-8.6c0-.5.4-1 1-1h9.3c.5 0 1 .4 1 1v8.6z"/>
                <path class="st5"
                      d="M59 81.5c0 .5-.4 1-1 1h-9.3c-.5 0-1-.4-1-1v-8.6c0-.5.4-1 1-1H58c.5 0 1 .4 1 1v8.6z"/></g></g></g></svg>