<svg viewBox="0 0 1024 1024" fill="#F7C83A" class="icon" version="1.1" xmlns="http://www.w3.org/2000/svg">
    <g id="SVGRepo_bgCarrier" stroke-width="0"></g>
    <g id="SVGRepo_tracerCarrier" stroke-linecap="round" stroke-linejoin="round"></g>
    <g id="SVGRepo_iconCarrier">
        <path d="M982.352941 1024a40.941176 40.941176 0 0 1-28.235294-12L917.647059 977.411765a49.882353 49.882353 0 0 0-67.058824 0 132.705882 132.705882 0 0 1-180.470588 0 49.882353 49.882353 0 0 0-67.058823 0 132.705882 132.705882 0 0 1-180.470589 0 49.882353 49.882353 0 0 0-67.058823 0 132.705882 132.705882 0 0 1-180.470588 0 49.882353 49.882353 0 0 0-67.058824 0L70.588235 1012a41.176471 41.176471 0 0 1-57.647059-58.823529L49.882353 917.882353a132.470588 132.470588 0 0 1 180.705882 0 49.882353 49.882353 0 0 0 67.058824 0 132.470588 132.470588 0 0 1 180.470588 0 49.882353 49.882353 0 0 0 67.058824 0 132.470588 132.470588 0 0 1 180.470588 0 49.882353 49.882353 0 0 0 67.058823 0 132.470588 132.470588 0 0 1 180.470589 0L1011.764706 953.176471a41.176471 41.176471 0 0 1-28.470588 70.588235zM982.352941 859.294118a40.941176 40.941176 0 0 1-28.235294-12L917.647059 812.705882a49.882353 49.882353 0 0 0-67.058824 0 132.705882 132.705882 0 0 1-180.470588 0 49.882353 49.882353 0 0 0-67.058823 0 132.705882 132.705882 0 0 1-180.470589 0 49.882353 49.882353 0 0 0-67.058823 0 132.705882 132.705882 0 0 1-180.470588 0 49.882353 49.882353 0 0 0-67.058824 0L70.588235 847.294118a41.176471 41.176471 0 0 1-57.647059-58.82353L49.882353 753.176471a132.470588 132.470588 0 0 1 180.705882 0 49.882353 49.882353 0 0 0 67.058824 0 132.470588 132.470588 0 0 1 180.470588 0 49.882353 49.882353 0 0 0 67.058824 0 132.470588 132.470588 0 0 1 180.470588 0 49.882353 49.882353 0 0 0 67.058823 0 132.470588 132.470588 0 0 1 180.470589 0L1011.764706 788.470588a41.176471 41.176471 0 0 1-28.470588 70.588236zM759.058824 132.705882a66.352941 66.352941 0 1 0-66.352942-66.352941 65.882353 65.882353 0 0 0 66.352942 66.352941z m-211.764706 0a66.352941 66.352941 0 1 0-66.352942-66.352941 65.882353 65.882353 0 0 0 66.352942 66.352941z m-211.764706 0a66.352941 66.352941 0 1 0-66.352941-66.352941 65.882353 65.882353 0 0 0 66.352941 66.352941z m623.294117 191.294118h-98.823529L800 224.470588a109.411765 109.411765 0 0 0-126.588235-48.705882l-94.117647 37.882353a108.941176 108.941176 0 0 0-117.647059-37.882353l-94.117647 37.882353a108.941176 108.941176 0 0 0-117.647059-37.882353l-178.117647 72.470588-52.705882 214.82353a47.058824 47.058824 0 0 0 91.294117 23.529411l41.411765-168 72-29.411764-114.352941 360.235294a207.058824 207.058824 0 0 1 31.764706-2.352941 204.941176 204.941176 0 0 1 65.411764 10.588235l44.705883-141.176471 70.588235 130.82353-4 12.470588a204.235294 204.235294 0 0 1 70.588235-12.235294 207.529412 207.529412 0 0 1 32 2.588235l42.117647-133.647059 70.588236 130.82353-10.82353 34.117647a201.411765 201.411765 0 0 1 109.411765-33.647059l41.411765-131.294118 73.17647 133.411765v30.352941c4.235294 2.823529 8.470588 5.647059 12.470588 8.705882a199.058824 199.058824 0 0 1 81.647059-37.411764v-26.352941L752.941176 464l12.941177-49.647059a47.058824 47.058824 0 0 0 23.529412-23.529412l16.705882 28h152a47.058824 47.058824 0 0 0 0-94.117647zM361.411765 522.588235L329.411765 464l24.705882-94.117647 29.176471 48.705882h11.058823z m67.058823-211.764706l-9.411764-15.764705 16.470588-6.82353z m144.705883 211.764706L541.176471 464l12.941176-49.647059a47.058824 47.058824 0 0 0 23.529412-23.529412l16.705882 28h11.058824z m67.058823-211.764706l-9.411765-15.764705 16.470589-6.82353z"></path>
    </g>
</svg>