<svg xmlns="http://www.w3.org/2000/svg" data-name="Layer 1" viewBox="0 0 512 640" x="0px" y="0px" fill="#F7C83A">
    <path d="M298.78613,274.04883a17.31934,17.31934,0,1,0,17.31934,17.31933A17.33909,17.33909,0,0,0,298.78613,274.04883Zm0,27.63867a10.31934,10.31934,0,1,1,10.31934-10.31934A10.3306,10.3306,0,0,1,298.78613,301.6875Z"/>
    <path d="M190.77051,291.36816A108.01563,108.01563,0,1,0,298.78613,183.35254,108.13853,108.13853,0,0,0,190.77051,291.36816Zm76.958,0a31.05811,31.05811,0,1,1,31.05761,31.05762A31.09329,31.09329,0,0,1,267.72852,291.36816Zm34.36474-61.95556-14.82739,25.68408q-1.63989.52149-3.21484,1.18311L276.064,226.48047a6.167,6.167,0,0,0-4.36059-4.36035l-35.94531-9.63086a100.58086,100.58086,0,0,1,47.9895-21.01612l18.34521,31.77247A6.16729,6.16729,0,0,1,302.09326,229.4126Zm-49.13745,11.45459a6.1663,6.1663,0,0,1,4.36084,4.36084l7.679,28.66308q-.783,1.50805-1.43482,3.09034l-26.72192-15.43116a6.167,6.167,0,0,0-6.16748-.00049l-32.27881,18.6377a100.465,100.465,0,0,1,19.168-48.80322ZM230.67139,288.0625a6.16585,6.16585,0,0,1,6.16748,0l25.677,14.82764q.52185,1.63916,1.18262,3.21338l-29.802,7.9873a6.16711,6.16711,0,0,0-4.36035,4.36035L219.906,354.39453a100.58186,100.58186,0,0,1-21.01416-47.98242Zm17.61206,49.13672a6.1663,6.1663,0,0,1,4.36084-4.36084l28.66479-7.68018q1.50732.783,3.08863,1.43457l-15.4314,26.72315a6.167,6.167,0,0,0,0,6.16748l18.63745,32.27832a100.46827,100.46827,0,0,1-48.803-19.169Zm47.20385,22.28271a6.16605,6.16605,0,0,1,0-6.165l14.82056-25.67871q1.63843-.52147,3.21167-1.18164l7.98779,29.80176a6.16712,6.16712,0,0,0,4.36036,4.36035l35.94384,9.63037A100.58236,100.58236,0,0,1,313.8291,391.2627Zm49.12842-17.61035a6.16761,6.16761,0,0,1-4.36133-4.36133l-7.67871-28.66211q.78333-1.50806,1.43531-3.09033L360.73267,321.189a6.168,6.168,0,0,0,6.16674.00049l32.27955-18.6333a100.466,100.466,0,0,1-19.16724,48.7959Zm22.283-47.2041a6.1686,6.1686,0,0,1-6.16577.00049l-25.6748-14.81885q-.52185-1.63989-1.18287-3.21435l29.79981-7.98682a6.167,6.167,0,0,0,4.36011-4.35986l9.63574-35.94043a100.58312,100.58312,0,0,1,21.00928,47.97363ZM349.2876,245.53906a6.16694,6.16694,0,0,1-4.36084,4.36133l-28.66016,7.67822q-1.50879-.78369-3.0918-1.436l15.43067-26.73a6.16729,6.16729,0,0,0-.00025-6.167l-18.633-32.27051a100.46719,100.46719,0,0,1,48.79663,19.1665Z"/>
    <path d="M99.0752,213.00684A17.38135,17.38135,0,1,0,116.45605,195.626,17.40035,17.40035,0,0,0,99.0752,213.00684Zm25.42749-6.54786a8.29527,8.29527,0,0,0-2.32789-.35888l-.1184-.00049a16.2947,16.2947,0,0,0-12.64576,6.06445,8.94869,8.94869,0,0,0-2.03076,5.86865A10.37368,10.37368,0,0,1,124.50269,206.459Z"/>
    <path d="M116.45605,387.11035A17.38135,17.38135,0,1,0,99.0752,369.72852,17.402,17.402,0,0,0,116.45605,387.11035Zm0-27.76269a10.36415,10.36415,0,0,1,8.04664,3.833,8.27757,8.27757,0,0,0-2.32789-.35888l-.1184-.00049a16.29579,16.29579,0,0,0-12.64576,6.064,8.95081,8.95081,0,0,0-2.03076,5.86963,10.37131,10.37131,0,0,1,9.07617-15.40722Z"/>
    <path d="M433.69434,49.90918h-4.55372V16a3.5,3.5,0,0,0-7,0V49.90918h-50.124V16a3.5,3.5,0,0,0-7,0V49.90918h-4.55371a7.35317,7.35317,0,0,0-7.34473,7.34473v18.957a7.35317,7.35317,0,0,0,7.34473,7.34472h4.55371v82.71289a3.5,3.5,0,0,0,7,0V83.55566h50.124v207.8125A123.354,123.354,0,1,1,222.5332,194.39941a3.5,3.5,0,0,0-4.33008-5.5A130.431,130.431,0,0,0,174.30127,330.083H115.7168a7.26856,7.26856,0,0,1-7.26075-7.26074V259.91406a7.2694,7.2694,0,0,1,7.26075-7.26172h46.73828a3.5,3.5,0,0,0,0-7H115.7168a14.27726,14.27726,0,0,0-14.26075,14.26172v62.90821A14.27705,14.27705,0,0,0,115.7168,337.083h60.99707a131.08292,131.08292,0,0,0,53.81176,65.291H93.0625a15.11851,15.11851,0,0,1-15.10156-15.10156V195.46289A15.11851,15.11851,0,0,1,93.0625,180.36133l151.07129-.00293a3.49851,3.49851,0,0,0,1.50976-.34278,123.50524,123.50524,0,0,1,120.94629,8.29883,3.5,3.5,0,1,0,3.85352-5.84375,130.50852,130.50852,0,0,0-127.09766-9.1123l-104.19824.002V126.875a9.09674,9.09674,0,0,0-9.08691-9.08594h-27.208a9.09675,9.09675,0,0,0-9.08692,9.08594v46.48633H93.0625a22.127,22.127,0,0,0-22.10156,22.10156V387.27246A22.127,22.127,0,0,0,93.0625,409.374h.70312v46.48926a9.097,9.097,0,0,0,9.08692,9.08692h27.208a9.097,9.097,0,0,0,9.08691-9.08692V409.374H239.18384l-19.35767,54.80371H210.3457a7.68307,7.68307,0,0,0-7.46289,6.00782L198.5,490.22656A7.63974,7.63974,0,0,0,205.96289,499.5H391.60938a7.63971,7.63971,0,0,0,7.46386-9.27246l-4.38281-20.042a7.687,7.687,0,0,0-7.46582-6.00782l-7.708.00293h-.001a2.50475,2.50475,0,0,1-2.35839-1.667l-19.40088-54.91308a130.49409,130.49409,0,0,0,71.38427-116.23243V83.55566h4.55372a7.35316,7.35316,0,0,0,7.34472-7.34472v-18.957A7.35316,7.35316,0,0,0,433.69434,49.90918ZM373.47949,74.71094a5.29762,5.29762,0,0,0,.34693,1.84472H360.46289a.34467.34467,0,0,1-.34473-.34472v-18.957a.34468.34468,0,0,1,.34473-.34473h22.6355A21.27278,21.27278,0,0,0,373.47949,74.71094ZM100.76562,126.875a2.08888,2.08888,0,0,1,2.08692-2.08594h27.208a2.08888,2.08888,0,0,1,2.08691,2.08594v46.48535l-31.38184.001Zm31.38184,328.98828a2.08971,2.08971,0,0,1-2.08691,2.08692h-27.208a2.08972,2.08972,0,0,1-2.08692-2.08692V409.374h31.38184Zm238.41016,8.98242a9.514,9.514,0,0,0,8.958,6.335h.00293l7.707-.00293a.63791.63791,0,0,1,.62695.50391l4.38281,20.041a.6401.6401,0,0,1-.626.77734H205.96289a.63856.63856,0,0,1-.625-.77637l4.38281-20.043a.644.644,0,0,1,.625-.50293H352.58789a3.5,3.5,0,0,0,0-7H227.24951l18.9187-53.56054a130.21767,130.21767,0,0,0,105.2312.00244Z"/>
</svg>